<svg xmlns="http://www.w3.org/2000/svg" width="46" height="46" viewBox="0 0 46 46" fill="none"><path d="M21.4667 0V6.09401H24.5333V0H21.4667ZM10.2856 11.1094L5.6856 6.53887L3.5144 8.69615L8.1144 13.2667L10.2856 11.1094ZM37.8856 13.2667L42.4856 8.69615L40.3144 6.53887L35.7144 11.1094L37.8856 13.2667ZM23 9.14101C20.0767 9.14052 17.2513 10.1881 15.0429 12.0912C12.8346 13.9944 11.3914 16.6253 10.9787 19.5008L10.948 19.7141C10.7149 21.316 10.8093 22.9482 11.2255 24.5131C11.6418 26.0779 12.3714 27.5433 13.3707 28.8216C14.5452 30.3299 15.3333 31.7711 15.3333 33.2154V38.0875C15.3333 38.4916 15.4949 38.8791 15.7824 39.1648C16.07 39.4505 16.46 39.611 16.8667 39.611H29.1333C29.54 39.611 29.93 39.4505 30.2176 39.1648C30.5051 38.8791 30.6667 38.4916 30.6667 38.0875V33.2154C30.6667 31.7711 31.4548 30.3299 32.6293 28.8216C34.5613 26.3413 35.5365 23.1085 35.052 19.7111L35.0213 19.4978C34.6079 16.6228 33.1645 13.9926 30.9562 12.0901C28.7479 10.1875 25.9229 9.14042 23 9.14101ZM0 24.376H6.13333V21.329H0V24.376ZM39.8667 24.376H46V21.329H39.8667V24.376ZM18.4 45.7051H27.6V42.6581H18.4V45.7051Z" fill="white"></path></svg>