<svg xmlns="http://www.w3.org/2000/svg" width="35" height="40" viewBox="0 0 35 40" fill="none"><path d="M26.5417 4.5254H33V35.1847C33 35.8623 32.7278 36.5122 32.2434 36.9913C31.7589 37.4705 31.1018 37.7396 30.4167 37.7396H4.58333C3.89819 37.7396 3.24111 37.4705 2.75664 36.9913C2.27217 36.5122 2 35.8623 2 35.1847V4.5254H8.45833M11.0417 22.41L16.2083 27.5199L25.25 17.3001M9.75 1.97046H25.25V7.08034C25.25 7.75795 24.9778 8.40781 24.4934 8.88696C24.0089 9.3661 23.3518 9.63528 22.6667 9.63528H12.3333C11.6482 9.63528 10.9911 9.3661 10.5066 8.88696C10.0222 8.40781 9.75 7.75795 9.75 7.08034V1.97046Z" stroke="white" stroke-width="3"></path></svg>