<svg xmlns="http://www.w3.org/2000/svg" width="43" height="44" viewBox="0 0 43 44" fill="none"><path fill-rule="evenodd" clip-rule="evenodd" d="M0 19.6853C0.00038594 16.6713 0.733962 13.7021 2.13823 11.0306C3.54249 8.35914 5.57582 6.06459 8.06498 4.34244C10.5541 2.6203 13.4253 1.52162 16.434 1.14C19.4426 0.758375 22.4995 1.10513 25.3442 2.15071C28.1889 3.1963 30.737 4.90973 32.7716 7.14501C34.8061 9.3803 36.2668 12.0712 37.029 14.9884C37.7913 17.9056 37.8326 20.9627 37.1494 23.8993C36.4663 26.8358 35.0788 29.5647 33.1054 31.8534L43 41.68L40.9533 43.7138L31.0588 33.8843C28.3263 36.2106 24.9798 37.7096 21.4161 38.2036C17.8525 38.6976 14.221 38.1659 10.9521 36.6715C7.68325 35.1771 4.91413 32.7827 2.97299 29.772C1.03185 26.7614 8.20352e-05 23.2608 0 19.6853ZM25.6309 17.2286L19.8413 11.4753C19.7068 11.3414 19.5471 11.2351 19.3712 11.1626C19.1954 11.0901 19.0069 11.0528 18.8165 11.0528C18.6261 11.0528 18.4376 11.0901 18.2617 11.1626C18.0859 11.2351 17.9262 11.3414 17.7917 11.4753L12.002 17.2286C11.8677 17.3624 11.7612 17.5212 11.6887 17.696C11.6162 17.8707 11.579 18.0579 11.5794 18.2469V25.4385C11.5794 25.82 11.7319 26.1858 12.0033 26.4556C12.2748 26.7253 12.6429 26.8768 13.0268 26.8768H24.6062C24.99 26.8768 25.3582 26.7253 25.6296 26.4556C25.9011 26.1858 26.0536 25.82 26.0536 25.4385V18.2469C26.0539 18.0579 26.0168 17.8707 25.9443 17.696C25.8717 17.5212 25.7653 17.3624 25.6309 17.2286Z" fill="white"></path></svg>